<mxfile host="app.diagrams.net" agent="Mozilla/5.0 (Windows NT 10.0; Win64; x64) AppleWebKit/537.36 (KHTML, like Gecko) Chrome/126.0.0.0 YaBrowser/24.7.0.0 Safari/537.36" version="24.7.17">
  <diagram name="Макет" id="GkG4UiDAxBTzutPn86us">
    <mxGraphModel dx="1313" dy="709" grid="1" gridSize="10" guides="1" tooltips="1" connect="1" arrows="1" fold="1" page="1" pageScale="1" pageWidth="827" pageHeight="583" math="0" shadow="0">
      <root>
        <mxCell id="0" />
        <mxCell id="1" parent="0" />
        <mxCell id="KzpGplt8NTQ8QfuxWTj3-181" value="" style="rounded=0;whiteSpace=wrap;html=1;" vertex="1" parent="1">
          <mxGeometry x="458" y="332" width="72" height="13" as="geometry" />
        </mxCell>
        <mxCell id="TsgVSxkFDL1PqfmOp_3S-1" value="" style="rounded=1;whiteSpace=wrap;html=1;rotation=90;" parent="1" vertex="1">
          <mxGeometry y="207" width="260" height="150" as="geometry" />
        </mxCell>
        <mxCell id="TsgVSxkFDL1PqfmOp_3S-2" value="" style="rounded=1;whiteSpace=wrap;html=1;rotation=90;" parent="1" vertex="1">
          <mxGeometry x="240" y="207" width="260" height="150" as="geometry" />
        </mxCell>
        <mxCell id="TsgVSxkFDL1PqfmOp_3S-7" value="" style="endArrow=classic;html=1;rounded=0;entryX=0.75;entryY=1;entryDx=0;entryDy=0;strokeWidth=2;exitX=1;exitY=0.5;exitDx=0;exitDy=0;" parent="1" source="TsgVSxkFDL1PqfmOp_3S-38" target="TsgVSxkFDL1PqfmOp_3S-2" edge="1">
          <mxGeometry width="50" height="50" relative="1" as="geometry">
            <mxPoint x="250" y="420" as="sourcePoint" />
            <mxPoint x="380" y="300" as="targetPoint" />
            <Array as="points">
              <mxPoint x="250" y="393" />
              <mxPoint x="250" y="347" />
            </Array>
          </mxGeometry>
        </mxCell>
        <mxCell id="TsgVSxkFDL1PqfmOp_3S-13" value="" style="endArrow=classic;html=1;rounded=0;exitX=0.98;exitY=0.67;exitDx=0;exitDy=0;strokeWidth=2;exitPerimeter=0;entryX=0.5;entryY=1;entryDx=0;entryDy=0;" parent="1" source="TsgVSxkFDL1PqfmOp_3S-80" target="KzpGplt8NTQ8QfuxWTj3-52" edge="1">
          <mxGeometry width="50" height="50" relative="1" as="geometry">
            <mxPoint x="330" y="430" as="sourcePoint" />
            <mxPoint x="500" y="420" as="targetPoint" />
            <Array as="points">
              <mxPoint x="490" y="360" />
              <mxPoint x="490" y="427" />
            </Array>
          </mxGeometry>
        </mxCell>
        <mxCell id="TsgVSxkFDL1PqfmOp_3S-14" value="" style="endArrow=none;html=1;rounded=0;" parent="1" edge="1">
          <mxGeometry width="50" height="50" relative="1" as="geometry">
            <mxPoint x="55" y="380" as="sourcePoint" />
            <mxPoint x="205" y="380" as="targetPoint" />
          </mxGeometry>
        </mxCell>
        <mxCell id="TsgVSxkFDL1PqfmOp_3S-15" value="" style="endArrow=none;html=1;rounded=0;" parent="1" edge="1">
          <mxGeometry width="50" height="50" relative="1" as="geometry">
            <mxPoint x="55" y="191.32999999999998" as="sourcePoint" />
            <mxPoint x="205" y="191.32999999999998" as="targetPoint" />
          </mxGeometry>
        </mxCell>
        <mxCell id="TsgVSxkFDL1PqfmOp_3S-16" value="" style="ellipse;whiteSpace=wrap;html=1;aspect=fixed;" parent="1" vertex="1">
          <mxGeometry x="80" y="160.32999999999998" width="25" height="25" as="geometry" />
        </mxCell>
        <mxCell id="TsgVSxkFDL1PqfmOp_3S-17" value="&lt;font style=&quot;font-size: 10px;&quot;&gt;Петров Петр&lt;/font&gt;" style="text;html=1;align=center;verticalAlign=middle;whiteSpace=wrap;rounded=0;" parent="1" vertex="1">
          <mxGeometry x="105" y="160.32999999999998" width="75" height="23.5" as="geometry" />
        </mxCell>
        <mxCell id="TsgVSxkFDL1PqfmOp_3S-18" value="" style="rounded=1;whiteSpace=wrap;html=1;arcSize=50;" parent="1" vertex="1">
          <mxGeometry x="83" y="353" width="60" height="19" as="geometry" />
        </mxCell>
        <mxCell id="TsgVSxkFDL1PqfmOp_3S-19" value="&lt;font style=&quot;font-size: 10px;&quot;&gt;&lt;font style=&quot;font-size: 10px;&quot;&gt;При&lt;/font&gt;вет&lt;/font&gt;!" style="text;html=1;align=center;verticalAlign=middle;whiteSpace=wrap;rounded=0;" parent="1" vertex="1">
          <mxGeometry x="98" y="357" width="30" height="10" as="geometry" />
        </mxCell>
        <mxCell id="TsgVSxkFDL1PqfmOp_3S-20" value="" style="ellipse;whiteSpace=wrap;html=1;aspect=fixed;" parent="1" vertex="1">
          <mxGeometry x="60" y="354" width="18" height="18" as="geometry" />
        </mxCell>
        <mxCell id="TsgVSxkFDL1PqfmOp_3S-23" value="" style="rounded=1;whiteSpace=wrap;html=1;imageWidth=24;fillOpacity=100;arcSize=50;" parent="1" vertex="1">
          <mxGeometry x="75" y="385" width="110" height="16" as="geometry" />
        </mxCell>
        <mxCell id="TsgVSxkFDL1PqfmOp_3S-38" value="" style="ellipse;whiteSpace=wrap;html=1;aspect=fixed;strokeColor=#f20707;strokeWidth=2;" parent="1" vertex="1">
          <mxGeometry x="167" y="384" width="18" height="18" as="geometry" />
        </mxCell>
        <mxCell id="TsgVSxkFDL1PqfmOp_3S-26" value="" style="ellipse;whiteSpace=wrap;html=1;aspect=fixed;" parent="1" vertex="1">
          <mxGeometry x="170" y="387" width="12" height="12" as="geometry" />
        </mxCell>
        <mxCell id="TsgVSxkFDL1PqfmOp_3S-27" value="&lt;font style=&quot;font-size: 7px;&quot;&gt;Сообщение&lt;/font&gt;" style="text;html=1;align=center;verticalAlign=middle;whiteSpace=wrap;rounded=0;" parent="1" vertex="1">
          <mxGeometry x="70" y="376" width="60" height="30" as="geometry" />
        </mxCell>
        <mxCell id="TsgVSxkFDL1PqfmOp_3S-28" value="" style="shape=actor;whiteSpace=wrap;html=1;" parent="1" vertex="1">
          <mxGeometry x="85.5" y="163.7" width="14" height="18.25" as="geometry" />
        </mxCell>
        <mxCell id="TsgVSxkFDL1PqfmOp_3S-31" value="" style="shape=actor;whiteSpace=wrap;html=1;" parent="1" vertex="1">
          <mxGeometry x="64" y="355.5" width="10" height="14" as="geometry" />
        </mxCell>
        <mxCell id="TsgVSxkFDL1PqfmOp_3S-41" value="" style="endArrow=none;html=1;rounded=0;" parent="1" edge="1">
          <mxGeometry width="50" height="50" relative="1" as="geometry">
            <mxPoint x="295" y="310" as="sourcePoint" />
            <mxPoint x="445" y="310" as="targetPoint" />
          </mxGeometry>
        </mxCell>
        <mxCell id="TsgVSxkFDL1PqfmOp_3S-43" value="" style="endArrow=none;html=1;rounded=0;" parent="1" edge="1">
          <mxGeometry width="50" height="50" relative="1" as="geometry">
            <mxPoint x="295" y="191.32999999999998" as="sourcePoint" />
            <mxPoint x="445" y="191.32999999999998" as="targetPoint" />
          </mxGeometry>
        </mxCell>
        <mxCell id="TsgVSxkFDL1PqfmOp_3S-44" value="" style="ellipse;whiteSpace=wrap;html=1;aspect=fixed;" parent="1" vertex="1">
          <mxGeometry x="320" y="160.32999999999998" width="25" height="25" as="geometry" />
        </mxCell>
        <mxCell id="TsgVSxkFDL1PqfmOp_3S-45" value="&lt;font style=&quot;font-size: 10px;&quot;&gt;Петров Петр&lt;/font&gt;" style="text;html=1;align=center;verticalAlign=middle;whiteSpace=wrap;rounded=0;" parent="1" vertex="1">
          <mxGeometry x="345" y="160.32999999999998" width="75" height="23.5" as="geometry" />
        </mxCell>
        <mxCell id="TsgVSxkFDL1PqfmOp_3S-46" value="" style="shape=actor;whiteSpace=wrap;html=1;" parent="1" vertex="1">
          <mxGeometry x="325.5" y="163.7" width="14" height="18.25" as="geometry" />
        </mxCell>
        <mxCell id="TsgVSxkFDL1PqfmOp_3S-64" value="" style="rounded=1;whiteSpace=wrap;html=1;imageWidth=24;fillOpacity=100;arcSize=50;" parent="1" vertex="1">
          <mxGeometry x="316" y="313" width="110" height="16" as="geometry" />
        </mxCell>
        <mxCell id="TsgVSxkFDL1PqfmOp_3S-66" value="" style="endArrow=none;html=1;rounded=0;exitX=0.659;exitY=0.996;exitDx=0;exitDy=0;exitPerimeter=0;entryX=0.658;entryY=0.008;entryDx=0;entryDy=0;entryPerimeter=0;" parent="1" edge="1">
          <mxGeometry width="50" height="50" relative="1" as="geometry">
            <mxPoint x="295.90000000000015" y="331.68999999999994" as="sourcePoint" />
            <mxPoint x="444.1000000000002" y="331.42999999999995" as="targetPoint" />
          </mxGeometry>
        </mxCell>
        <mxCell id="TsgVSxkFDL1PqfmOp_3S-67" value="" style="rounded=1;whiteSpace=wrap;html=1;arcSize=50;" parent="1" vertex="1">
          <mxGeometry x="323" y="282.5" width="60" height="19" as="geometry" />
        </mxCell>
        <mxCell id="TsgVSxkFDL1PqfmOp_3S-68" value="&lt;font style=&quot;font-size: 10px;&quot;&gt;&lt;font style=&quot;font-size: 10px;&quot;&gt;При&lt;/font&gt;вет&lt;/font&gt;!" style="text;html=1;align=center;verticalAlign=middle;whiteSpace=wrap;rounded=0;" parent="1" vertex="1">
          <mxGeometry x="338" y="287" width="30" height="10" as="geometry" />
        </mxCell>
        <mxCell id="TsgVSxkFDL1PqfmOp_3S-69" value="" style="ellipse;whiteSpace=wrap;html=1;aspect=fixed;" parent="1" vertex="1">
          <mxGeometry x="300" y="283.5" width="18" height="18" as="geometry" />
        </mxCell>
        <mxCell id="TsgVSxkFDL1PqfmOp_3S-70" value="" style="shape=actor;whiteSpace=wrap;html=1;" parent="1" vertex="1">
          <mxGeometry x="304" y="285" width="10" height="14" as="geometry" />
        </mxCell>
        <mxCell id="TsgVSxkFDL1PqfmOp_3S-71" value="" style="verticalLabelPosition=bottom;verticalAlign=top;html=1;shape=mxgraph.basic.smiley;fillColor=#f5f5f5;strokeColor=#666666;gradientColor=#b3b3b3;" parent="1" vertex="1">
          <mxGeometry x="304" y="341" width="26" height="26" as="geometry" />
        </mxCell>
        <mxCell id="TsgVSxkFDL1PqfmOp_3S-80" value="" style="ellipse;whiteSpace=wrap;html=1;aspect=fixed;strokeWidth=3;strokeColor=#ff0000;" parent="1" vertex="1">
          <mxGeometry x="404" y="335" width="38" height="38" as="geometry" />
        </mxCell>
        <mxCell id="TsgVSxkFDL1PqfmOp_3S-73" value="" style="verticalLabelPosition=bottom;verticalAlign=top;html=1;shape=mxgraph.basic.smiley;fillColor=#f5f5f5;strokeColor=#666666;gradientColor=#b3b3b3;" parent="1" vertex="1">
          <mxGeometry x="375" y="341" width="26" height="26" as="geometry" />
        </mxCell>
        <mxCell id="b5YggCTuRFzEjDqizYQu-40" value="" style="verticalLabelPosition=bottom;verticalAlign=top;html=1;shape=mxgraph.basic.smiley;fillColor=#f5f5f5;strokeColor=#666666;gradientColor=#b3b3b3;" parent="1" vertex="1">
          <mxGeometry x="339.5" y="341" width="26" height="26" as="geometry" />
        </mxCell>
        <mxCell id="b5YggCTuRFzEjDqizYQu-41" value="" style="verticalLabelPosition=bottom;verticalAlign=top;html=1;shape=mxgraph.basic.smiley;fillColor=#f5f5f5;strokeColor=#666666;gradientColor=#b3b3b3;" parent="1" vertex="1">
          <mxGeometry x="339.5" y="373" width="26" height="26" as="geometry" />
        </mxCell>
        <mxCell id="b5YggCTuRFzEjDqizYQu-42" value="" style="verticalLabelPosition=bottom;verticalAlign=top;html=1;shape=mxgraph.basic.smiley;fillColor=#f5f5f5;strokeColor=#666666;gradientColor=#b3b3b3;" parent="1" vertex="1">
          <mxGeometry x="304" y="373" width="26" height="26" as="geometry" />
        </mxCell>
        <mxCell id="b5YggCTuRFzEjDqizYQu-43" value="" style="verticalLabelPosition=bottom;verticalAlign=top;html=1;shape=mxgraph.basic.smiley;fillColor=#f5f5f5;strokeColor=#666666;gradientColor=#b3b3b3;" parent="1" vertex="1">
          <mxGeometry x="375" y="373" width="26" height="26" as="geometry" />
        </mxCell>
        <mxCell id="b5YggCTuRFzEjDqizYQu-44" value="" style="verticalLabelPosition=bottom;verticalAlign=top;html=1;shape=mxgraph.basic.smiley;fillColor=#fff2cc;strokeColor=default;" parent="1" vertex="1">
          <mxGeometry x="410" y="341" width="26" height="26" as="geometry" />
        </mxCell>
        <mxCell id="KzpGplt8NTQ8QfuxWTj3-12" value="" style="rounded=1;whiteSpace=wrap;html=1;rotation=90;" vertex="1" parent="1">
          <mxGeometry x="512.5" y="76.66999999999999" width="260" height="150" as="geometry" />
        </mxCell>
        <mxCell id="KzpGplt8NTQ8QfuxWTj3-13" value="" style="endArrow=none;html=1;rounded=0;" edge="1" parent="1">
          <mxGeometry width="50" height="50" relative="1" as="geometry">
            <mxPoint x="567.5" y="179.67" as="sourcePoint" />
            <mxPoint x="717.5" y="179.67" as="targetPoint" />
          </mxGeometry>
        </mxCell>
        <mxCell id="KzpGplt8NTQ8QfuxWTj3-14" value="" style="endArrow=none;html=1;rounded=0;" edge="1" parent="1">
          <mxGeometry width="50" height="50" relative="1" as="geometry">
            <mxPoint x="567.5" y="60.99999999999997" as="sourcePoint" />
            <mxPoint x="717.5" y="60.99999999999997" as="targetPoint" />
          </mxGeometry>
        </mxCell>
        <mxCell id="KzpGplt8NTQ8QfuxWTj3-15" value="" style="ellipse;whiteSpace=wrap;html=1;aspect=fixed;" vertex="1" parent="1">
          <mxGeometry x="592.5" y="29.99999999999997" width="25" height="25" as="geometry" />
        </mxCell>
        <mxCell id="KzpGplt8NTQ8QfuxWTj3-16" value="&lt;font style=&quot;font-size: 10px;&quot;&gt;Петров Петр&lt;/font&gt;" style="text;html=1;align=center;verticalAlign=middle;whiteSpace=wrap;rounded=0;" vertex="1" parent="1">
          <mxGeometry x="617.5" y="29.99999999999997" width="75" height="23.5" as="geometry" />
        </mxCell>
        <mxCell id="KzpGplt8NTQ8QfuxWTj3-17" value="" style="shape=actor;whiteSpace=wrap;html=1;" vertex="1" parent="1">
          <mxGeometry x="598" y="33.369999999999976" width="14" height="18.25" as="geometry" />
        </mxCell>
        <mxCell id="KzpGplt8NTQ8QfuxWTj3-18" value="" style="rounded=1;whiteSpace=wrap;html=1;imageWidth=24;fillOpacity=100;arcSize=50;" vertex="1" parent="1">
          <mxGeometry x="588.5" y="182.67" width="110" height="16" as="geometry" />
        </mxCell>
        <mxCell id="KzpGplt8NTQ8QfuxWTj3-19" value="" style="endArrow=none;html=1;rounded=0;exitX=0.659;exitY=0.996;exitDx=0;exitDy=0;exitPerimeter=0;entryX=0.658;entryY=0.008;entryDx=0;entryDy=0;entryPerimeter=0;" edge="1" parent="1">
          <mxGeometry width="50" height="50" relative="1" as="geometry">
            <mxPoint x="568.4000000000001" y="201.35999999999993" as="sourcePoint" />
            <mxPoint x="716.6000000000001" y="201.09999999999994" as="targetPoint" />
          </mxGeometry>
        </mxCell>
        <mxCell id="KzpGplt8NTQ8QfuxWTj3-20" value="" style="rounded=1;whiteSpace=wrap;html=1;arcSize=50;" vertex="1" parent="1">
          <mxGeometry x="595.5" y="152.17" width="60" height="19" as="geometry" />
        </mxCell>
        <mxCell id="KzpGplt8NTQ8QfuxWTj3-21" value="&lt;font style=&quot;font-size: 10px;&quot;&gt;&lt;font style=&quot;font-size: 10px;&quot;&gt;При&lt;/font&gt;вет&lt;/font&gt;!" style="text;html=1;align=center;verticalAlign=middle;whiteSpace=wrap;rounded=0;" vertex="1" parent="1">
          <mxGeometry x="610.5" y="156.67" width="30" height="10" as="geometry" />
        </mxCell>
        <mxCell id="KzpGplt8NTQ8QfuxWTj3-22" value="" style="ellipse;whiteSpace=wrap;html=1;aspect=fixed;" vertex="1" parent="1">
          <mxGeometry x="572.5" y="153.17" width="18" height="18" as="geometry" />
        </mxCell>
        <mxCell id="KzpGplt8NTQ8QfuxWTj3-23" value="" style="shape=actor;whiteSpace=wrap;html=1;" vertex="1" parent="1">
          <mxGeometry x="576.5" y="154.67" width="10" height="14" as="geometry" />
        </mxCell>
        <mxCell id="KzpGplt8NTQ8QfuxWTj3-24" value="" style="verticalLabelPosition=bottom;verticalAlign=top;html=1;shape=mxgraph.basic.smiley;fillColor=#f5f5f5;strokeColor=#666666;gradientColor=#b3b3b3;" vertex="1" parent="1">
          <mxGeometry x="576.5" y="210.67" width="26" height="26" as="geometry" />
        </mxCell>
        <mxCell id="KzpGplt8NTQ8QfuxWTj3-26" value="" style="verticalLabelPosition=bottom;verticalAlign=top;html=1;shape=mxgraph.basic.smiley;fillColor=#f5f5f5;strokeColor=#666666;gradientColor=#b3b3b3;" vertex="1" parent="1">
          <mxGeometry x="647.5" y="210.67" width="26" height="26" as="geometry" />
        </mxCell>
        <mxCell id="KzpGplt8NTQ8QfuxWTj3-27" value="" style="verticalLabelPosition=bottom;verticalAlign=top;html=1;shape=mxgraph.basic.smiley;fillColor=#f5f5f5;strokeColor=#666666;gradientColor=#b3b3b3;" vertex="1" parent="1">
          <mxGeometry x="612" y="210.67" width="26" height="26" as="geometry" />
        </mxCell>
        <mxCell id="KzpGplt8NTQ8QfuxWTj3-28" value="" style="verticalLabelPosition=bottom;verticalAlign=top;html=1;shape=mxgraph.basic.smiley;fillColor=#f5f5f5;strokeColor=#666666;gradientColor=#b3b3b3;" vertex="1" parent="1">
          <mxGeometry x="612" y="242.67" width="26" height="26" as="geometry" />
        </mxCell>
        <mxCell id="KzpGplt8NTQ8QfuxWTj3-29" value="" style="verticalLabelPosition=bottom;verticalAlign=top;html=1;shape=mxgraph.basic.smiley;fillColor=#f5f5f5;strokeColor=#666666;gradientColor=#b3b3b3;" vertex="1" parent="1">
          <mxGeometry x="576.5" y="242.67" width="26" height="26" as="geometry" />
        </mxCell>
        <mxCell id="KzpGplt8NTQ8QfuxWTj3-30" value="" style="verticalLabelPosition=bottom;verticalAlign=top;html=1;shape=mxgraph.basic.smiley;fillColor=#f5f5f5;strokeColor=#666666;gradientColor=#b3b3b3;" vertex="1" parent="1">
          <mxGeometry x="647.5" y="242.67" width="26" height="26" as="geometry" />
        </mxCell>
        <mxCell id="KzpGplt8NTQ8QfuxWTj3-31" value="" style="verticalLabelPosition=bottom;verticalAlign=top;html=1;shape=mxgraph.basic.smiley;fillColor=#fff2cc;strokeColor=default;" vertex="1" parent="1">
          <mxGeometry x="682.5" y="210.67" width="26" height="26" as="geometry" />
        </mxCell>
        <mxCell id="KzpGplt8NTQ8QfuxWTj3-52" value="" style="rounded=1;whiteSpace=wrap;html=1;rotation=90;" vertex="1" parent="1">
          <mxGeometry x="512.5" y="351.53999999999996" width="260" height="150" as="geometry" />
        </mxCell>
        <mxCell id="KzpGplt8NTQ8QfuxWTj3-53" value="" style="endArrow=none;html=1;rounded=0;" edge="1" parent="1">
          <mxGeometry width="50" height="50" relative="1" as="geometry">
            <mxPoint x="567.5" y="454.53999999999996" as="sourcePoint" />
            <mxPoint x="717.5" y="454.53999999999996" as="targetPoint" />
          </mxGeometry>
        </mxCell>
        <mxCell id="KzpGplt8NTQ8QfuxWTj3-54" value="" style="endArrow=none;html=1;rounded=0;" edge="1" parent="1">
          <mxGeometry width="50" height="50" relative="1" as="geometry">
            <mxPoint x="567.5" y="335.87" as="sourcePoint" />
            <mxPoint x="717.5" y="335.87" as="targetPoint" />
          </mxGeometry>
        </mxCell>
        <mxCell id="KzpGplt8NTQ8QfuxWTj3-55" value="" style="ellipse;whiteSpace=wrap;html=1;aspect=fixed;" vertex="1" parent="1">
          <mxGeometry x="592.5" y="304.87" width="25" height="25" as="geometry" />
        </mxCell>
        <mxCell id="KzpGplt8NTQ8QfuxWTj3-56" value="&lt;font style=&quot;font-size: 10px;&quot;&gt;Петров Петр&lt;/font&gt;" style="text;html=1;align=center;verticalAlign=middle;whiteSpace=wrap;rounded=0;" vertex="1" parent="1">
          <mxGeometry x="617.5" y="304.87" width="75" height="23.5" as="geometry" />
        </mxCell>
        <mxCell id="KzpGplt8NTQ8QfuxWTj3-57" value="" style="shape=actor;whiteSpace=wrap;html=1;" vertex="1" parent="1">
          <mxGeometry x="598" y="308.24" width="14" height="18.25" as="geometry" />
        </mxCell>
        <mxCell id="KzpGplt8NTQ8QfuxWTj3-58" value="" style="rounded=1;whiteSpace=wrap;html=1;imageWidth=24;fillOpacity=100;arcSize=50;" vertex="1" parent="1">
          <mxGeometry x="588.5" y="457.53999999999996" width="110" height="16" as="geometry" />
        </mxCell>
        <mxCell id="KzpGplt8NTQ8QfuxWTj3-59" value="" style="endArrow=none;html=1;rounded=0;exitX=0.659;exitY=0.996;exitDx=0;exitDy=0;exitPerimeter=0;entryX=0.658;entryY=0.008;entryDx=0;entryDy=0;entryPerimeter=0;" edge="1" parent="1">
          <mxGeometry width="50" height="50" relative="1" as="geometry">
            <mxPoint x="568.4000000000001" y="476.2299999999999" as="sourcePoint" />
            <mxPoint x="716.6000000000001" y="475.9699999999999" as="targetPoint" />
          </mxGeometry>
        </mxCell>
        <mxCell id="KzpGplt8NTQ8QfuxWTj3-64" value="" style="verticalLabelPosition=bottom;verticalAlign=top;html=1;shape=mxgraph.basic.smiley;fillColor=#f5f5f5;strokeColor=#666666;gradientColor=#b3b3b3;" vertex="1" parent="1">
          <mxGeometry x="576.5" y="485.53999999999996" width="26" height="26" as="geometry" />
        </mxCell>
        <mxCell id="KzpGplt8NTQ8QfuxWTj3-66" value="" style="verticalLabelPosition=bottom;verticalAlign=top;html=1;shape=mxgraph.basic.smiley;fillColor=#f5f5f5;strokeColor=#666666;gradientColor=#b3b3b3;" vertex="1" parent="1">
          <mxGeometry x="647.5" y="485.53999999999996" width="26" height="26" as="geometry" />
        </mxCell>
        <mxCell id="KzpGplt8NTQ8QfuxWTj3-67" value="" style="verticalLabelPosition=bottom;verticalAlign=top;html=1;shape=mxgraph.basic.smiley;fillColor=#f5f5f5;strokeColor=#666666;gradientColor=#b3b3b3;" vertex="1" parent="1">
          <mxGeometry x="612" y="485.53999999999996" width="26" height="26" as="geometry" />
        </mxCell>
        <mxCell id="KzpGplt8NTQ8QfuxWTj3-68" value="" style="verticalLabelPosition=bottom;verticalAlign=top;html=1;shape=mxgraph.basic.smiley;fillColor=#f5f5f5;strokeColor=#666666;gradientColor=#b3b3b3;" vertex="1" parent="1">
          <mxGeometry x="612" y="517.54" width="26" height="26" as="geometry" />
        </mxCell>
        <mxCell id="KzpGplt8NTQ8QfuxWTj3-69" value="" style="verticalLabelPosition=bottom;verticalAlign=top;html=1;shape=mxgraph.basic.smiley;fillColor=#f5f5f5;strokeColor=#666666;gradientColor=#b3b3b3;" vertex="1" parent="1">
          <mxGeometry x="576.5" y="517.54" width="26" height="26" as="geometry" />
        </mxCell>
        <mxCell id="KzpGplt8NTQ8QfuxWTj3-70" value="" style="verticalLabelPosition=bottom;verticalAlign=top;html=1;shape=mxgraph.basic.smiley;fillColor=#f5f5f5;strokeColor=#666666;gradientColor=#b3b3b3;" vertex="1" parent="1">
          <mxGeometry x="647.5" y="517.54" width="26" height="26" as="geometry" />
        </mxCell>
        <mxCell id="KzpGplt8NTQ8QfuxWTj3-71" value="" style="verticalLabelPosition=bottom;verticalAlign=top;html=1;shape=mxgraph.basic.smiley;fillColor=#fff2cc;strokeColor=default;" vertex="1" parent="1">
          <mxGeometry x="682.5" y="485.53999999999996" width="26" height="26" as="geometry" />
        </mxCell>
        <mxCell id="KzpGplt8NTQ8QfuxWTj3-72" value="" style="verticalLabelPosition=bottom;verticalAlign=top;html=1;shape=mxgraph.basic.smiley;fillColor=#fff2cc;strokeColor=default;" vertex="1" parent="1">
          <mxGeometry x="660.5" y="394.99" width="50" height="50" as="geometry" />
        </mxCell>
        <mxCell id="KzpGplt8NTQ8QfuxWTj3-73" value="" style="rounded=1;whiteSpace=wrap;html=1;arcSize=50;" vertex="1" parent="1">
          <mxGeometry x="595.5" y="375.99" width="60" height="19" as="geometry" />
        </mxCell>
        <mxCell id="KzpGplt8NTQ8QfuxWTj3-74" value="&lt;font style=&quot;font-size: 10px;&quot;&gt;&lt;font style=&quot;font-size: 10px;&quot;&gt;При&lt;/font&gt;вет&lt;/font&gt;!" style="text;html=1;align=center;verticalAlign=middle;whiteSpace=wrap;rounded=0;" vertex="1" parent="1">
          <mxGeometry x="610.5" y="380.49" width="30" height="10" as="geometry" />
        </mxCell>
        <mxCell id="KzpGplt8NTQ8QfuxWTj3-75" value="" style="ellipse;whiteSpace=wrap;html=1;aspect=fixed;" vertex="1" parent="1">
          <mxGeometry x="572.5" y="376.99" width="18" height="18" as="geometry" />
        </mxCell>
        <mxCell id="KzpGplt8NTQ8QfuxWTj3-76" value="" style="shape=actor;whiteSpace=wrap;html=1;" vertex="1" parent="1">
          <mxGeometry x="576.5" y="378.49" width="10" height="14" as="geometry" />
        </mxCell>
        <mxCell id="KzpGplt8NTQ8QfuxWTj3-77" value="" style="endArrow=classic;html=1;rounded=0;exitX=0.264;exitY=0.998;exitDx=0;exitDy=0;exitPerimeter=0;entryX=0.5;entryY=0;entryDx=0;entryDy=0;strokeWidth=2;" edge="1" parent="1" source="KzpGplt8NTQ8QfuxWTj3-11" target="TsgVSxkFDL1PqfmOp_3S-2">
          <mxGeometry width="50" height="50" relative="1" as="geometry">
            <mxPoint x="436" y="76.66999999999999" as="sourcePoint" />
            <mxPoint x="380" y="100" as="targetPoint" />
            <Array as="points">
              <mxPoint x="470" y="90" />
              <mxPoint x="470" y="282" />
            </Array>
          </mxGeometry>
        </mxCell>
        <mxCell id="KzpGplt8NTQ8QfuxWTj3-91" value="" style="shape=table;startSize=0;container=1;collapsible=0;childLayout=tableLayout;fontSize=16;" vertex="1" parent="1">
          <mxGeometry x="410" y="316" width="10" height="10" as="geometry" />
        </mxCell>
        <mxCell id="KzpGplt8NTQ8QfuxWTj3-92" value="" style="shape=tableRow;horizontal=0;startSize=0;swimlaneHead=0;swimlaneBody=0;strokeColor=inherit;top=0;left=0;bottom=0;right=0;collapsible=0;dropTarget=0;fillColor=none;points=[[0,0.5],[1,0.5]];portConstraint=eastwest;fontSize=16;" vertex="1" parent="KzpGplt8NTQ8QfuxWTj3-91">
          <mxGeometry width="10" height="3" as="geometry" />
        </mxCell>
        <mxCell id="KzpGplt8NTQ8QfuxWTj3-93" value="" style="shape=partialRectangle;html=1;whiteSpace=wrap;connectable=0;strokeColor=inherit;overflow=hidden;fillColor=none;top=0;left=0;bottom=0;right=0;pointerEvents=1;fontSize=16;" vertex="1" parent="KzpGplt8NTQ8QfuxWTj3-92">
          <mxGeometry width="3" height="3" as="geometry">
            <mxRectangle width="3" height="3" as="alternateBounds" />
          </mxGeometry>
        </mxCell>
        <mxCell id="KzpGplt8NTQ8QfuxWTj3-94" value="" style="shape=partialRectangle;html=1;whiteSpace=wrap;connectable=0;strokeColor=inherit;overflow=hidden;fillColor=none;top=0;left=0;bottom=0;right=0;pointerEvents=1;fontSize=16;" vertex="1" parent="KzpGplt8NTQ8QfuxWTj3-92">
          <mxGeometry x="3" width="4" height="3" as="geometry">
            <mxRectangle width="4" height="3" as="alternateBounds" />
          </mxGeometry>
        </mxCell>
        <mxCell id="KzpGplt8NTQ8QfuxWTj3-95" value="" style="shape=partialRectangle;html=1;whiteSpace=wrap;connectable=0;strokeColor=inherit;overflow=hidden;fillColor=none;top=0;left=0;bottom=0;right=0;pointerEvents=1;fontSize=16;" vertex="1" parent="KzpGplt8NTQ8QfuxWTj3-92">
          <mxGeometry x="7" width="3" height="3" as="geometry">
            <mxRectangle width="3" height="3" as="alternateBounds" />
          </mxGeometry>
        </mxCell>
        <mxCell id="KzpGplt8NTQ8QfuxWTj3-96" value="" style="shape=tableRow;horizontal=0;startSize=0;swimlaneHead=0;swimlaneBody=0;strokeColor=inherit;top=0;left=0;bottom=0;right=0;collapsible=0;dropTarget=0;fillColor=none;points=[[0,0.5],[1,0.5]];portConstraint=eastwest;fontSize=16;" vertex="1" parent="KzpGplt8NTQ8QfuxWTj3-91">
          <mxGeometry y="3" width="10" height="4" as="geometry" />
        </mxCell>
        <mxCell id="KzpGplt8NTQ8QfuxWTj3-97" value="" style="shape=partialRectangle;html=1;whiteSpace=wrap;connectable=0;strokeColor=inherit;overflow=hidden;fillColor=none;top=0;left=0;bottom=0;right=0;pointerEvents=1;fontSize=16;" vertex="1" parent="KzpGplt8NTQ8QfuxWTj3-96">
          <mxGeometry width="3" height="4" as="geometry">
            <mxRectangle width="3" height="4" as="alternateBounds" />
          </mxGeometry>
        </mxCell>
        <mxCell id="KzpGplt8NTQ8QfuxWTj3-98" value="" style="shape=partialRectangle;html=1;whiteSpace=wrap;connectable=0;strokeColor=inherit;overflow=hidden;fillColor=none;top=0;left=0;bottom=0;right=0;pointerEvents=1;fontSize=16;" vertex="1" parent="KzpGplt8NTQ8QfuxWTj3-96">
          <mxGeometry x="3" width="4" height="4" as="geometry">
            <mxRectangle width="4" height="4" as="alternateBounds" />
          </mxGeometry>
        </mxCell>
        <mxCell id="KzpGplt8NTQ8QfuxWTj3-99" value="" style="shape=partialRectangle;html=1;whiteSpace=wrap;connectable=0;strokeColor=inherit;overflow=hidden;fillColor=none;top=0;left=0;bottom=0;right=0;pointerEvents=1;fontSize=16;" vertex="1" parent="KzpGplt8NTQ8QfuxWTj3-96">
          <mxGeometry x="7" width="3" height="4" as="geometry">
            <mxRectangle width="3" height="4" as="alternateBounds" />
          </mxGeometry>
        </mxCell>
        <mxCell id="KzpGplt8NTQ8QfuxWTj3-100" value="" style="shape=tableRow;horizontal=0;startSize=0;swimlaneHead=0;swimlaneBody=0;strokeColor=inherit;top=0;left=0;bottom=0;right=0;collapsible=0;dropTarget=0;fillColor=none;points=[[0,0.5],[1,0.5]];portConstraint=eastwest;fontSize=16;" vertex="1" parent="KzpGplt8NTQ8QfuxWTj3-91">
          <mxGeometry y="7" width="10" height="3" as="geometry" />
        </mxCell>
        <mxCell id="KzpGplt8NTQ8QfuxWTj3-101" value="" style="shape=partialRectangle;html=1;whiteSpace=wrap;connectable=0;strokeColor=inherit;overflow=hidden;fillColor=none;top=0;left=0;bottom=0;right=0;pointerEvents=1;fontSize=16;" vertex="1" parent="KzpGplt8NTQ8QfuxWTj3-100">
          <mxGeometry width="3" height="3" as="geometry">
            <mxRectangle width="3" height="3" as="alternateBounds" />
          </mxGeometry>
        </mxCell>
        <mxCell id="KzpGplt8NTQ8QfuxWTj3-102" value="" style="shape=partialRectangle;html=1;whiteSpace=wrap;connectable=0;strokeColor=inherit;overflow=hidden;fillColor=none;top=0;left=0;bottom=0;right=0;pointerEvents=1;fontSize=16;" vertex="1" parent="KzpGplt8NTQ8QfuxWTj3-100">
          <mxGeometry x="3" width="4" height="3" as="geometry">
            <mxRectangle width="4" height="3" as="alternateBounds" />
          </mxGeometry>
        </mxCell>
        <mxCell id="KzpGplt8NTQ8QfuxWTj3-103" value="" style="shape=partialRectangle;html=1;whiteSpace=wrap;connectable=0;strokeColor=inherit;overflow=hidden;fillColor=none;top=0;left=0;bottom=0;right=0;pointerEvents=1;fontSize=16;" vertex="1" parent="KzpGplt8NTQ8QfuxWTj3-100">
          <mxGeometry x="7" width="3" height="3" as="geometry">
            <mxRectangle width="3" height="3" as="alternateBounds" />
          </mxGeometry>
        </mxCell>
        <mxCell id="KzpGplt8NTQ8QfuxWTj3-113" value="" style="shape=table;startSize=0;container=1;collapsible=0;childLayout=tableLayout;fontSize=16;" vertex="1" parent="1">
          <mxGeometry x="682.5" y="460.54" width="10" height="10" as="geometry" />
        </mxCell>
        <mxCell id="KzpGplt8NTQ8QfuxWTj3-114" value="" style="shape=tableRow;horizontal=0;startSize=0;swimlaneHead=0;swimlaneBody=0;strokeColor=inherit;top=0;left=0;bottom=0;right=0;collapsible=0;dropTarget=0;fillColor=none;points=[[0,0.5],[1,0.5]];portConstraint=eastwest;fontSize=16;" vertex="1" parent="KzpGplt8NTQ8QfuxWTj3-113">
          <mxGeometry width="10" height="3" as="geometry" />
        </mxCell>
        <mxCell id="KzpGplt8NTQ8QfuxWTj3-115" value="" style="shape=partialRectangle;html=1;whiteSpace=wrap;connectable=0;strokeColor=inherit;overflow=hidden;fillColor=none;top=0;left=0;bottom=0;right=0;pointerEvents=1;fontSize=16;" vertex="1" parent="KzpGplt8NTQ8QfuxWTj3-114">
          <mxGeometry width="3" height="3" as="geometry">
            <mxRectangle width="3" height="3" as="alternateBounds" />
          </mxGeometry>
        </mxCell>
        <mxCell id="KzpGplt8NTQ8QfuxWTj3-116" value="" style="shape=partialRectangle;html=1;whiteSpace=wrap;connectable=0;strokeColor=inherit;overflow=hidden;fillColor=none;top=0;left=0;bottom=0;right=0;pointerEvents=1;fontSize=16;" vertex="1" parent="KzpGplt8NTQ8QfuxWTj3-114">
          <mxGeometry x="3" width="4" height="3" as="geometry">
            <mxRectangle width="4" height="3" as="alternateBounds" />
          </mxGeometry>
        </mxCell>
        <mxCell id="KzpGplt8NTQ8QfuxWTj3-117" value="" style="shape=partialRectangle;html=1;whiteSpace=wrap;connectable=0;strokeColor=inherit;overflow=hidden;fillColor=none;top=0;left=0;bottom=0;right=0;pointerEvents=1;fontSize=16;" vertex="1" parent="KzpGplt8NTQ8QfuxWTj3-114">
          <mxGeometry x="7" width="3" height="3" as="geometry">
            <mxRectangle width="3" height="3" as="alternateBounds" />
          </mxGeometry>
        </mxCell>
        <mxCell id="KzpGplt8NTQ8QfuxWTj3-118" value="" style="shape=tableRow;horizontal=0;startSize=0;swimlaneHead=0;swimlaneBody=0;strokeColor=inherit;top=0;left=0;bottom=0;right=0;collapsible=0;dropTarget=0;fillColor=none;points=[[0,0.5],[1,0.5]];portConstraint=eastwest;fontSize=16;" vertex="1" parent="KzpGplt8NTQ8QfuxWTj3-113">
          <mxGeometry y="3" width="10" height="4" as="geometry" />
        </mxCell>
        <mxCell id="KzpGplt8NTQ8QfuxWTj3-119" value="" style="shape=partialRectangle;html=1;whiteSpace=wrap;connectable=0;strokeColor=inherit;overflow=hidden;fillColor=none;top=0;left=0;bottom=0;right=0;pointerEvents=1;fontSize=16;" vertex="1" parent="KzpGplt8NTQ8QfuxWTj3-118">
          <mxGeometry width="3" height="4" as="geometry">
            <mxRectangle width="3" height="4" as="alternateBounds" />
          </mxGeometry>
        </mxCell>
        <mxCell id="KzpGplt8NTQ8QfuxWTj3-120" value="" style="shape=partialRectangle;html=1;whiteSpace=wrap;connectable=0;strokeColor=inherit;overflow=hidden;fillColor=none;top=0;left=0;bottom=0;right=0;pointerEvents=1;fontSize=16;" vertex="1" parent="KzpGplt8NTQ8QfuxWTj3-118">
          <mxGeometry x="3" width="4" height="4" as="geometry">
            <mxRectangle width="4" height="4" as="alternateBounds" />
          </mxGeometry>
        </mxCell>
        <mxCell id="KzpGplt8NTQ8QfuxWTj3-121" value="" style="shape=partialRectangle;html=1;whiteSpace=wrap;connectable=0;strokeColor=inherit;overflow=hidden;fillColor=none;top=0;left=0;bottom=0;right=0;pointerEvents=1;fontSize=16;" vertex="1" parent="KzpGplt8NTQ8QfuxWTj3-118">
          <mxGeometry x="7" width="3" height="4" as="geometry">
            <mxRectangle width="3" height="4" as="alternateBounds" />
          </mxGeometry>
        </mxCell>
        <mxCell id="KzpGplt8NTQ8QfuxWTj3-122" value="" style="shape=tableRow;horizontal=0;startSize=0;swimlaneHead=0;swimlaneBody=0;strokeColor=inherit;top=0;left=0;bottom=0;right=0;collapsible=0;dropTarget=0;fillColor=none;points=[[0,0.5],[1,0.5]];portConstraint=eastwest;fontSize=16;" vertex="1" parent="KzpGplt8NTQ8QfuxWTj3-113">
          <mxGeometry y="7" width="10" height="3" as="geometry" />
        </mxCell>
        <mxCell id="KzpGplt8NTQ8QfuxWTj3-123" value="" style="shape=partialRectangle;html=1;whiteSpace=wrap;connectable=0;strokeColor=inherit;overflow=hidden;fillColor=none;top=0;left=0;bottom=0;right=0;pointerEvents=1;fontSize=16;" vertex="1" parent="KzpGplt8NTQ8QfuxWTj3-122">
          <mxGeometry width="3" height="3" as="geometry">
            <mxRectangle width="3" height="3" as="alternateBounds" />
          </mxGeometry>
        </mxCell>
        <mxCell id="KzpGplt8NTQ8QfuxWTj3-124" value="" style="shape=partialRectangle;html=1;whiteSpace=wrap;connectable=0;strokeColor=inherit;overflow=hidden;fillColor=none;top=0;left=0;bottom=0;right=0;pointerEvents=1;fontSize=16;" vertex="1" parent="KzpGplt8NTQ8QfuxWTj3-122">
          <mxGeometry x="3" width="4" height="3" as="geometry">
            <mxRectangle width="4" height="3" as="alternateBounds" />
          </mxGeometry>
        </mxCell>
        <mxCell id="KzpGplt8NTQ8QfuxWTj3-125" value="" style="shape=partialRectangle;html=1;whiteSpace=wrap;connectable=0;strokeColor=inherit;overflow=hidden;fillColor=none;top=0;left=0;bottom=0;right=0;pointerEvents=1;fontSize=16;" vertex="1" parent="KzpGplt8NTQ8QfuxWTj3-122">
          <mxGeometry x="7" width="3" height="3" as="geometry">
            <mxRectangle width="3" height="3" as="alternateBounds" />
          </mxGeometry>
        </mxCell>
        <mxCell id="KzpGplt8NTQ8QfuxWTj3-165" value="" style="shape=table;startSize=0;container=1;collapsible=0;childLayout=tableLayout;fontSize=16;" vertex="1" parent="1">
          <mxGeometry x="682.5" y="185.67" width="10" height="10" as="geometry" />
        </mxCell>
        <mxCell id="KzpGplt8NTQ8QfuxWTj3-170" value="" style="shape=tableRow;horizontal=0;startSize=0;swimlaneHead=0;swimlaneBody=0;strokeColor=inherit;top=0;left=0;bottom=0;right=0;collapsible=0;dropTarget=0;fillColor=none;points=[[0,0.5],[1,0.5]];portConstraint=eastwest;fontSize=16;" vertex="1" parent="KzpGplt8NTQ8QfuxWTj3-165">
          <mxGeometry width="10" height="4" as="geometry" />
        </mxCell>
        <mxCell id="KzpGplt8NTQ8QfuxWTj3-171" value="" style="shape=partialRectangle;html=1;whiteSpace=wrap;connectable=0;strokeColor=inherit;overflow=hidden;fillColor=none;top=0;left=0;bottom=0;right=0;pointerEvents=1;fontSize=16;" vertex="1" parent="KzpGplt8NTQ8QfuxWTj3-170">
          <mxGeometry width="3" height="4" as="geometry">
            <mxRectangle width="3" height="4" as="alternateBounds" />
          </mxGeometry>
        </mxCell>
        <mxCell id="KzpGplt8NTQ8QfuxWTj3-172" value="" style="shape=partialRectangle;html=1;whiteSpace=wrap;connectable=0;strokeColor=inherit;overflow=hidden;fillColor=none;top=0;left=0;bottom=0;right=0;pointerEvents=1;fontSize=16;" vertex="1" parent="KzpGplt8NTQ8QfuxWTj3-170">
          <mxGeometry x="3" width="4" height="4" as="geometry">
            <mxRectangle width="4" height="4" as="alternateBounds" />
          </mxGeometry>
        </mxCell>
        <mxCell id="KzpGplt8NTQ8QfuxWTj3-173" value="" style="shape=partialRectangle;html=1;whiteSpace=wrap;connectable=0;strokeColor=inherit;overflow=hidden;fillColor=none;top=0;left=0;bottom=0;right=0;pointerEvents=1;fontSize=16;" vertex="1" parent="KzpGplt8NTQ8QfuxWTj3-170">
          <mxGeometry x="7" width="3" height="4" as="geometry">
            <mxRectangle width="3" height="4" as="alternateBounds" />
          </mxGeometry>
        </mxCell>
        <mxCell id="KzpGplt8NTQ8QfuxWTj3-166" value="" style="shape=tableRow;horizontal=0;startSize=0;swimlaneHead=0;swimlaneBody=0;strokeColor=inherit;top=0;left=0;bottom=0;right=0;collapsible=0;dropTarget=0;fillColor=none;points=[[0,0.5],[1,0.5]];portConstraint=eastwest;fontSize=16;" vertex="1" parent="KzpGplt8NTQ8QfuxWTj3-165">
          <mxGeometry y="4" width="10" height="3" as="geometry" />
        </mxCell>
        <mxCell id="KzpGplt8NTQ8QfuxWTj3-167" value="" style="shape=partialRectangle;html=1;whiteSpace=wrap;connectable=0;strokeColor=inherit;overflow=hidden;fillColor=none;top=0;left=0;bottom=0;right=0;pointerEvents=1;fontSize=16;" vertex="1" parent="KzpGplt8NTQ8QfuxWTj3-166">
          <mxGeometry width="3" height="3" as="geometry">
            <mxRectangle width="3" height="3" as="alternateBounds" />
          </mxGeometry>
        </mxCell>
        <mxCell id="KzpGplt8NTQ8QfuxWTj3-168" value="" style="shape=partialRectangle;html=1;whiteSpace=wrap;connectable=0;strokeColor=inherit;overflow=hidden;fillColor=none;top=0;left=0;bottom=0;right=0;pointerEvents=1;fontSize=16;" vertex="1" parent="KzpGplt8NTQ8QfuxWTj3-166">
          <mxGeometry x="3" width="4" height="3" as="geometry">
            <mxRectangle width="4" height="3" as="alternateBounds" />
          </mxGeometry>
        </mxCell>
        <mxCell id="KzpGplt8NTQ8QfuxWTj3-169" value="" style="shape=partialRectangle;html=1;whiteSpace=wrap;connectable=0;strokeColor=inherit;overflow=hidden;fillColor=none;top=0;left=0;bottom=0;right=0;pointerEvents=1;fontSize=16;" vertex="1" parent="KzpGplt8NTQ8QfuxWTj3-166">
          <mxGeometry x="7" width="3" height="3" as="geometry">
            <mxRectangle width="3" height="3" as="alternateBounds" />
          </mxGeometry>
        </mxCell>
        <mxCell id="KzpGplt8NTQ8QfuxWTj3-174" value="" style="shape=tableRow;horizontal=0;startSize=0;swimlaneHead=0;swimlaneBody=0;strokeColor=inherit;top=0;left=0;bottom=0;right=0;collapsible=0;dropTarget=0;fillColor=none;points=[[0,0.5],[1,0.5]];portConstraint=eastwest;fontSize=16;" vertex="1" parent="KzpGplt8NTQ8QfuxWTj3-165">
          <mxGeometry y="7" width="10" height="3" as="geometry" />
        </mxCell>
        <mxCell id="KzpGplt8NTQ8QfuxWTj3-175" value="" style="shape=partialRectangle;html=1;whiteSpace=wrap;connectable=0;strokeColor=inherit;overflow=hidden;fillColor=none;top=0;left=0;bottom=0;right=0;pointerEvents=1;fontSize=16;" vertex="1" parent="KzpGplt8NTQ8QfuxWTj3-174">
          <mxGeometry width="3" height="3" as="geometry">
            <mxRectangle width="3" height="3" as="alternateBounds" />
          </mxGeometry>
        </mxCell>
        <mxCell id="KzpGplt8NTQ8QfuxWTj3-176" value="" style="shape=partialRectangle;html=1;whiteSpace=wrap;connectable=0;strokeColor=inherit;overflow=hidden;fillColor=none;top=0;left=0;bottom=0;right=0;pointerEvents=1;fontSize=16;" vertex="1" parent="KzpGplt8NTQ8QfuxWTj3-174">
          <mxGeometry x="3" width="4" height="3" as="geometry">
            <mxRectangle width="4" height="3" as="alternateBounds" />
          </mxGeometry>
        </mxCell>
        <mxCell id="KzpGplt8NTQ8QfuxWTj3-177" value="" style="shape=partialRectangle;html=1;whiteSpace=wrap;connectable=0;strokeColor=inherit;overflow=hidden;fillColor=none;top=0;left=0;bottom=0;right=0;pointerEvents=1;fontSize=16;" vertex="1" parent="KzpGplt8NTQ8QfuxWTj3-174">
          <mxGeometry x="7" width="3" height="3" as="geometry">
            <mxRectangle width="3" height="3" as="alternateBounds" />
          </mxGeometry>
        </mxCell>
        <mxCell id="KzpGplt8NTQ8QfuxWTj3-11" value="" style="rounded=1;whiteSpace=wrap;html=1;rotation=90;fillColor=#f5f5f5;fontColor=#333333;strokeColor=#666666;opacity=60;" vertex="1" parent="1">
          <mxGeometry x="513.5" y="76.67" width="260" height="150" as="geometry" />
        </mxCell>
        <mxCell id="b5YggCTuRFzEjDqizYQu-47" value="" style="verticalLabelPosition=bottom;verticalAlign=top;html=1;shape=mxgraph.basic.smiley;fillColor=#fff2cc;strokeColor=#000000;" parent="1" vertex="1">
          <mxGeometry x="607" y="89.32999999999997" width="71" height="71" as="geometry" />
        </mxCell>
        <mxCell id="TsgVSxkFDL1PqfmOp_3S-10" value="" style="endArrow=classic;html=1;rounded=0;strokeWidth=2;exitX=0.94;exitY=0.265;exitDx=0;exitDy=0;exitPerimeter=0;entryX=0.03;entryY=0.387;entryDx=0;entryDy=0;entryPerimeter=0;" parent="1" source="TsgVSxkFDL1PqfmOp_3S-80" edge="1" target="b5YggCTuRFzEjDqizYQu-47">
          <mxGeometry width="50" height="50" relative="1" as="geometry">
            <mxPoint x="480" y="360" as="sourcePoint" />
            <mxPoint x="590" y="117" as="targetPoint" />
            <Array as="points">
              <mxPoint x="530" y="345" />
              <mxPoint x="530" y="117" />
            </Array>
          </mxGeometry>
        </mxCell>
        <mxCell id="KzpGplt8NTQ8QfuxWTj3-180" value="&lt;h6&gt;&lt;font face=&quot;Helvetica&quot; style=&quot;font-size: 7px; font-weight: normal;&quot;&gt;Зажатие на объекте&lt;/font&gt;&lt;/h6&gt;" style="text;html=1;align=left;verticalAlign=middle;whiteSpace=wrap;rounded=0;" vertex="1" parent="1">
          <mxGeometry x="459" y="323" width="80" height="30" as="geometry" />
        </mxCell>
        <mxCell id="KzpGplt8NTQ8QfuxWTj3-184" value="" style="rounded=0;whiteSpace=wrap;html=1;" vertex="1" parent="1">
          <mxGeometry x="469.5" y="78.33" width="98" height="11" as="geometry" />
        </mxCell>
        <mxCell id="KzpGplt8NTQ8QfuxWTj3-185" value="&lt;pre style=&quot;text-align: left;&quot;&gt;&lt;font style=&quot;font-size: 7px;&quot;&gt;Отмена удержания объекта&lt;/font&gt;&lt;/pre&gt;" style="text;html=1;align=center;verticalAlign=middle;whiteSpace=wrap;rounded=0;" vertex="1" parent="1">
          <mxGeometry x="488.5" y="67" width="60" height="30" as="geometry" />
        </mxCell>
        <mxCell id="KzpGplt8NTQ8QfuxWTj3-187" value="" style="rounded=0;whiteSpace=wrap;html=1;" vertex="1" parent="1">
          <mxGeometry x="468" y="359.5" width="22" height="11" as="geometry" />
        </mxCell>
        <mxCell id="KzpGplt8NTQ8QfuxWTj3-188" value="&lt;pre style=&quot;font-size: 7px;&quot;&gt;Клик&lt;/pre&gt;" style="text;html=1;align=center;verticalAlign=middle;whiteSpace=wrap;rounded=0;" vertex="1" parent="1">
          <mxGeometry x="452" y="350" width="54" height="29" as="geometry" />
        </mxCell>
        <mxCell id="KzpGplt8NTQ8QfuxWTj3-189" value="Предпросмотр" style="text;html=1;align=center;verticalAlign=middle;whiteSpace=wrap;rounded=0;fontSize=9;fontColor=#908e8e;" vertex="1" parent="1">
          <mxGeometry x="612.5" y="1" width="60" height="24" as="geometry" />
        </mxCell>
      </root>
    </mxGraphModel>
  </diagram>
</mxfile>
